<?xml version="1.0" standalone="no"?>
<!DOCTYPE svg PUBLIC "-//W3C//DTD SVG 20010904//EN" "http://www.w3.org/TR/2001/REC-SVG-20010904/DTD/svg10.dtd">
<svg xmlns="http://www.w3.org/2000/svg" version="1.0" width="960.000000pt" height="1280.000000pt" viewBox="0 0 960.000000 1280.000000" preserveAspectRatio="xMidYMid meet">
<metadata>
Created by potrace 1.16, written by Peter Selinger 2001-2019
<meta name="Producer" content="Online-Convert"/></metadata>
<g transform="translate(0.000000,1280.000000) scale(0.100000,-0.100000)" fill="#000000" stroke="none">
<path d="M4429 8856 c-3 -3 -40 -12 -84 -21 -44 -9 -94 -24 -110 -34 -17 -10 -58 -26 -90 -36 -59 -18 -96 -40 -166 -100 -20 -16 -49 -39 -65 -50 -16 -11 -49 -40 -74 -64 -25 -25 -49 -44 -55 -43 -5 1 -18 -25 -27 -57 -13 -44 -26 -65 -52 -85 -60 -45 -94 -105 -97 -167 -1 -30 3 -66 9 -81 9 -21 8 -33 -3 -55 -19 -35 -19 -59 -1 -66 8 -3 17 -21 21 -39 4 -18 16 -43 27 -55 13 -13 20 -35 20 -60 0 -21 8 -60 19 -87 12 -33 17 -62 13 -87 -4 -21 1 -64 10 -100 8 -35 21 -122 27 -194 12 -143 18 -162 54 -171 20 -5 26 -16 36 -62 6 -31 15 -65 19 -76 28 -74 46 -114 63 -138 10 -16 17 -28 15 -29 -2 0 -57 -3 -123 -5 -66 -3 -133 -9 -149 -14 -16 -6 -62 -10 -103 -10 -54 0 -84 -5 -113 -20 -22 -11 -47 -20 -57 -20 -9 0 -54 -12 -100 -27 -66 -22 -89 -34 -109 -60 -14 -18 -34 -33 -45 -33 -14 0 -25 -12 -36 -37 -24 -61 -40 -73 -95 -73 -60 0 -95 -28 -77 -61 6 -12 19 -23 29 -26 15 -4 16 -9 5 -39 -6 -19 -17 -40 -23 -46 -15 -15 -16 -67 -2 -102 9 -25 7 -27 -92 -77 -56 -28 -121 -65 -144 -83 -23 -17 -55 -40 -70 -51 -103 -74 -242 -212 -302 -300 -26 -38 -75 -105 -110 -149 -58 -71 -80 -111 -155 -276 -30 -66 -56 -103 -57 -80 0 9 4 20 8 25 5 6 7 31 4 58 -3 41 -7 47 -27 47 -18 0 -24 -7 -30 -37 -9 -53 -44 -123 -61 -123 -16 0 -18 36 -4 95 5 24 5 44 0 50 -5 6 -9 25 -8 41 1 43 -10 152 -17 164 -14 22 -25 -4 -25 -56 l0 -56 -32 2 c-52 3 -58 1 -58 -19 0 -11 -5 -23 -10 -26 -6 -4 -9 -23 -8 -43 3 -43 -20 -52 -37 -14 -5 12 -15 22 -22 22 -9 0 -9 10 2 41 12 34 13 44 1 60 -7 11 -11 36 -9 59 4 41 -3 48 -35 31 -22 -11 -142 7 -163 26 -15 12 -19 11 -39 -16 -11 -17 -18 -36 -15 -42 4 -6 -2 -19 -14 -30 -12 -11 -21 -26 -21 -34 0 -10 -10 -15 -29 -15 -16 0 -31 -6 -34 -14 -3 -8 -21 -17 -39 -21 -49 -11 -91 -37 -75 -48 9 -7 9 -10 0 -14 -7 -2 -13 -11 -13 -18 0 -21 -85 -23 -126 -3 -31 15 -34 15 -34 0 0 -12 -3 -13 -12 -4 -14 14 8 62 28 62 31 0 64 24 64 46 0 31 16 38 52 23 38 -15 50 0 35 42 -11 27 -37 41 -37 19 0 -5 -10 -16 -23 -25 -21 -13 -29 -13 -71 -1 -31 10 -56 12 -71 6 -28 -11 -244 -15 -268 -5 -9 4 -17 13 -17 21 0 8 -10 14 -25 14 -16 0 -25 6 -25 16 0 9 -7 14 -18 13 -9 -2 -41 3 -70 10 -57 14 -82 10 -82 -14 0 -56 -91 -60 -148 -7 -19 17 -30 15 -35 -5 -3 -10 -5 3 -6 29 -1 52 9 87 34 111 18 19 11 41 -11 33 -8 -3 -14 0 -14 6 0 9 -3 9 -12 0 -8 -8 -8 -15 2 -27 7 -8 10 -18 6 -22 -3 -3 -6 -1 -6 5 0 20 -28 13 -35 -8 -3 -11 -12 -20 -19 -20 -24 0 -36 25 -30 62 4 20 2 38 -4 42 -13 8 -62 -14 -62 -28 0 -6 -17 -11 -38 -11 l-37 0 0 64 c0 61 -1 64 -25 66 -31 3 -40 -10 -40 -57 0 -20 -4 -40 -10 -43 -6 -4 -10 -176 -10 -484 l0 -478 92 -8 c51 -4 117 -8 146 -7 48 1 51 -1 42 -18 -8 -15 -6 -20 10 -25 11 -3 24 -4 28 -1 5 3 41 -2 81 -10 40 -8 75 -13 78 -10 11 10 -10 26 -35 27 -25 1 -25 1 7 10 26 8 37 7 50 -5 13 -12 38 -16 102 -14 46 0 68 3 49 5 -19 2 -48 10 -65 17 -16 8 -46 17 -65 21 -19 4 -48 14 -65 23 -17 9 -75 18 -141 22 -62 5 -121 13 -133 19 -51 28 -19 32 209 29 126 -2 230 -6 230 -9 0 -3 30 -7 68 -8 37 0 87 -7 112 -15 l45 -13 3 -82 c2 -44 7 -81 12 -81 13 0 19 34 17 95 -1 61 27 113 50 93 11 -9 16 -9 24 3 6 10 9 7 9 -14 0 -16 4 -26 8 -23 5 3 22 -4 39 -14 24 -14 30 -24 26 -39 -3 -12 -1 -21 6 -21 6 0 11 9 11 20 0 17 4 19 26 14 20 -5 26 -2 31 15 8 32 48 25 48 -8 0 -18 7 -26 27 -32 36 -9 58 13 40 42 -17 27 -7 40 23 29 14 -5 31 -7 39 -4 15 6 66 -23 66 -37 0 -5 -16 -9 -35 -9 -19 0 -35 -4 -35 -9 0 -13 31 -24 63 -22 22 2 28 -1 25 -15 -2 -9 3 -19 11 -22 14 -5 13 13 -5 76 -5 17 -2 22 14 22 11 0 22 -8 25 -20 6 -22 32 -26 83 -11 30 8 32 7 42 -27 6 -19 9 -39 6 -44 -3 -4 -2 -13 2 -19 11 -18 24 11 24 54 0 34 3 38 23 35 20 -3 22 -8 23 -73 0 -58 3 -70 18 -73 13 -3 16 2 15 20 -4 45 1 68 15 68 21 0 27 28 8 39 -14 9 -13 10 9 11 18 0 28 -6 32 -20 3 -12 14 -20 26 -20 27 0 27 -16 1 -30 -11 -6 -20 -19 -20 -30 0 -10 -5 -22 -10 -25 -13 -8 -13 -25 1 -25 5 0 15 14 21 31 6 17 21 34 33 39 14 5 25 20 28 39 4 17 11 31 16 31 10 0 8 -14 -9 -55 -4 -11 -19 -60 -33 -110 -52 -186 -79 -282 -98 -345 -27 -94 -52 -382 -45 -510 4 -58 9 -148 11 -202 4 -90 6 -100 40 -152 23 -36 35 -67 35 -90 0 -24 10 -46 35 -76 23 -28 35 -52 35 -73 0 -17 -3 -28 -6 -24 -7 7 -23 -5 -64 -45 -16 -16 -35 -28 -44 -28 -9 0 -16 -8 -16 -18 0 -9 -12 -25 -27 -34 l-27 -16 39 -8 c26 -5 40 -3 43 5 2 6 9 11 15 11 7 0 18 10 25 21 11 17 20 20 48 16 38 -6 47 3 46 44 0 16 1 29 2 29 1 0 18 -24 36 -53 19 -28 52 -81 75 -117 71 -110 115 -187 115 -200 0 -20 292 -301 369 -355 39 -28 73 -57 76 -66 3 -9 28 -28 55 -43 55 -30 70 -50 70 -95 0 -35 -23 -61 -53 -61 -29 0 -53 -15 -38 -24 23 -15 162 -35 183 -27 13 4 44 9 69 10 36 1 51 -3 72 -23 24 -22 27 -33 27 -86 0 -52 -3 -60 -18 -60 -17 0 -52 -28 -52 -41 0 -9 40 -8 45 2 4 5 10 9 15 9 5 0 -1 -20 -14 -44 -13 -24 -26 -53 -29 -66 -5 -21 -7 -21 -22 -6 -20 20 -59 22 -52 2 6 -16 -12 -33 -109 -95 -47 -31 -91 -51 -119 -55 -47 -7 -66 -23 -45 -36 9 -6 7 -10 -7 -14 -12 -4 -31 -15 -43 -26 -25 -22 -55 -26 -66 -9 -7 13 -85 4 -94 -11 -3 -5 -54 -11 -113 -14 -58 -3 -123 -8 -143 -12 -31 -6 -36 -4 -31 8 4 13 0 14 -31 7 -87 -20 -172 0 -172 41 0 24 -26 16 -52 -15 -27 -32 -23 -63 9 -71 29 -7 76 -51 68 -64 -3 -4 -17 -10 -33 -13 -23 -5 -31 -14 -40 -45 -7 -22 -12 -55 -12 -74 0 -19 -3 -55 -6 -80 -6 -43 -9 -46 -63 -73 -46 -22 -53 -24 -38 -8 26 29 10 34 -34 11 -45 -23 -52 -43 -11 -34 23 5 24 5 9 -5 -10 -6 -29 -8 -42 -5 -33 8 -68 -8 -155 -75 -42 -31 -92 -64 -113 -72 -20 -9 -37 -22 -37 -30 0 -19 35 -28 49 -14 8 8 11 8 11 -1 0 -7 8 -12 18 -12 13 0 14 2 3 9 -11 7 -9 11 9 21 20 11 22 10 17 -3 -9 -24 19 -10 37 18 9 13 29 31 45 41 16 10 32 25 34 34 4 17 46 30 98 30 16 0 29 4 29 9 0 5 14 14 30 20 25 8 30 7 30 -5 0 -21 79 -13 92 10 5 8 17 20 27 25 16 9 17 7 13 -14 -2 -14 -8 -25 -13 -25 -5 0 -9 -3 -9 -7 0 -11 309 -15 328 -4 10 6 20 4 29 -4 10 -11 22 -11 60 -1 42 11 48 16 48 39 -1 24 4 27 45 32 25 4 49 8 55 9 5 1 16 -3 23 -11 16 -15 52 -16 102 -3 115 31 146 42 156 55 6 8 16 15 21 15 5 0 18 9 28 20 10 11 24 20 32 20 7 0 13 7 13 15 0 8 7 15 16 15 9 0 27 9 42 20 14 11 29 17 33 13 4 -4 12 -55 19 -113 6 -57 14 -108 16 -112 3 -5 14 -8 25 -8 10 0 36 -9 56 -20 21 -11 47 -20 59 -20 14 0 24 -8 27 -23 7 -26 -6 -119 -27 -199 -42 -157 -28 -284 41 -375 45 -58 52 -93 53 -249 0 -67 3 -136 6 -153 l7 -31 682 0 683 0 11 63 c6 34 15 107 21 162 12 114 30 225 37 225 2 0 13 -21 25 -46 11 -26 38 -74 59 -107 21 -33 39 -68 39 -79 0 -10 19 -63 42 -118 l42 -100 734 0 734 0 -7 78 c-4 42 -12 93 -19 112 -6 19 -13 78 -15 130 -1 52 -5 99 -8 103 -3 5 -9 88 -13 185 -6 145 -11 186 -29 230 -11 29 -21 69 -21 90 0 47 -28 185 -39 192 -5 3 -13 22 -19 43 -8 28 -8 39 1 41 73 21 93 34 111 71 10 22 22 69 27 105 9 72 2 337 -11 387 -4 17 -6 34 -3 36 10 10 43 -6 49 -25 3 -10 11 -17 17 -15 29 9 12 38 -50 85 -16 12 -36 40 -43 62 -7 21 -26 51 -41 66 -16 15 -29 33 -29 39 0 6 34 22 76 35 44 14 85 34 97 48 51 56 70 73 95 90 61 39 62 40 41 86 -10 22 -19 49 -19 59 0 9 -5 17 -10 17 -11 0 38 92 51 98 4 2 23 16 41 32 21 18 36 26 42 20 13 -13 63 -13 71 0 8 14 -19 66 -33 63 -6 -2 -9 4 -6 12 7 17 24 20 24 5 0 -5 8 -10 18 -10 26 0 62 -28 62 -49 0 -18 49 -41 89 -41 31 0 24 31 -12 48 -15 7 -27 19 -27 27 0 7 -10 17 -21 20 -19 6 -21 12 -15 55 8 59 -7 74 -38 36 -14 -18 -25 -23 -35 -17 -11 7 -6 20 21 67 40 69 60 78 79 35 8 -17 17 -31 21 -31 5 0 8 -11 8 -25 0 -15 6 -25 14 -25 23 0 68 -90 70 -139 3 -52 22 -64 96 -59 l45 3 3 53 c3 45 7 54 31 66 15 8 33 22 41 31 8 9 23 14 39 12 14 -2 20 -2 13 0 -10 4 -9 9 4 25 10 11 19 29 20 41 1 20 8 52 20 98 3 9 17 19 32 22 19 4 31 15 39 36 8 24 17 31 37 31 15 0 26 -6 26 -13 0 -8 17 -25 37 -38 l36 -24 -2 -82 c-1 -54 2 -91 12 -110 11 -21 12 -46 7 -103 -4 -41 -6 -77 -4 -79 5 -6 104 -2 126 5 14 4 15 0 7 -35 -6 -25 -5 -50 1 -66 13 -34 13 -32 -11 -38 -12 -3 -18 -10 -14 -16 13 -22 -130 -121 -175 -121 -6 0 -9 -4 -5 -9 7 -12 -27 -31 -55 -31 -12 0 -34 -8 -48 -19 -15 -10 -40 -22 -56 -28 -38 -12 -46 -33 -13 -33 14 0 27 4 29 10 2 5 19 11 38 12 29 3 35 0 35 -17 0 -29 52 -31 128 -6 33 12 77 21 97 21 20 0 60 6 90 14 71 18 99 21 131 12 31 -9 106 9 126 30 8 8 25 14 38 14 13 0 26 4 29 9 9 14 133 71 153 70 13 0 14 -2 3 -6 -62 -20 -72 -43 -19 -43 16 0 28 -3 28 -7 -4 -26 4 -44 23 -54 27 -15 131 -14 136 0 2 6 12 11 22 11 10 0 22 5 25 10 4 7 13 6 27 -1 16 -9 19 -8 13 2 -6 9 -2 10 16 4 49 -16 144 -20 184 -8 126 38 159 45 203 40 31 -4 38 -3 22 2 -24 8 -22 10 30 35 30 15 66 34 80 44 13 9 21 11 16 5 -4 -8 -2 -13 4 -13 7 0 20 -10 30 -23 10 -13 37 -32 60 -42 l42 -19 41 42 c66 65 71 69 104 76 23 5 40 2 59 -10 20 -13 50 -19 113 -20 84 -2 86 -3 83 -26 -2 -19 4 -26 33 -36 40 -15 45 -27 13 -36 l-23 -7 23 -9 c19 -8 42 -8 95 -1 14 2 -4 22 -27 31 -16 7 -11 9 27 9 35 1 47 5 47 16 0 11 -12 15 -45 15 -25 0 -45 5 -45 10 0 12 87 14 92 2 2 -4 20 -17 40 -29 25 -15 38 -18 41 -10 3 9 8 9 18 -1 7 -6 24 -12 36 -12 l24 0 -2 225 c-1 190 -3 225 -16 225 -8 0 -11 -4 -8 -10 8 -13 -10 -12 -72 4 -32 9 -66 11 -92 6 -23 -4 -41 -4 -41 1 0 5 -7 6 -15 3 -9 -4 -15 -19 -15 -35 0 -23 -4 -29 -22 -29 -16 0 -19 3 -10 9 11 6 11 10 0 18 -22 17 -79 22 -85 6 -6 -16 37 -54 56 -48 8 3 11 0 8 -9 -3 -8 1 -17 9 -20 47 -18 -38 -35 -206 -40 -52 -2 -103 -7 -112 -10 -17 -8 -18 -2 -18 80 -1 33 -51 27 -68 -8 l-13 -28 -118 0 -119 0 -15 32 -16 32 -6 -27 c-8 -32 -14 -33 -48 -7 -14 11 -33 20 -44 20 -46 0 -336 -123 -353 -150 -3 -5 -11 -5 -20 0 -11 7 -6 16 25 44 21 20 47 36 57 36 24 0 78 28 78 40 0 18 -20 21 -42 6 -40 -25 -258 15 -301 55 -12 10 -32 19 -45 19 l-24 0 23 19 24 20 -47 12 c-49 13 -66 36 -26 35 14 -1 24 6 26 17 2 11 -3 17 -13 17 -9 0 -15 6 -13 13 6 16 96 26 131 14 39 -13 62 8 48 45 -7 20 -6 28 9 41 10 8 26 17 37 19 11 2 17 11 15 23 -1 11 -3 92 -3 179 0 88 -3 164 -7 170 -10 16 -32 79 -32 94 0 13 -9 25 -43 63 -22 24 -37 63 -37 95 0 20 5 24 29 24 16 0 45 -7 65 -15 21 -9 79 -17 137 -19 75 -3 105 -9 119 -21 23 -21 70 -11 70 16 0 10 -4 19 -10 19 -5 0 -21 18 -34 39 -19 29 -30 38 -44 34 -23 -6 -84 24 -127 61 -33 29 -116 57 -174 60 -38 1 -38 2 -27 68 9 55 32 62 91 26 35 -20 39 -20 64 -5 26 15 27 15 46 -14 17 -24 27 -29 61 -29 22 0 64 7 92 15 39 12 57 13 72 5 11 -6 46 -10 78 -8 45 2 58 7 60 20 2 12 -6 21 -22 28 -17 6 -27 18 -27 32 -2 27 -5 58 -7 76 -3 20 -60 14 -72 -8 -13 -23 -40 -27 -40 -5 0 10 -10 15 -27 15 -16 0 -41 7 -56 15 -15 8 -34 12 -41 9 -7 -3 -18 2 -25 10 -12 14 -16 14 -34 1 -12 -8 -32 -15 -46 -15 l-24 0 23 25 c13 13 31 27 42 31 10 3 18 12 18 20 0 8 5 14 10 14 6 0 10 6 10 14 0 7 7 20 16 27 9 7 20 23 25 36 11 30 37 29 45 -2 5 -21 12 -25 41 -25 19 0 50 7 69 16 50 24 141 15 163 -15 l17 -23 38 26 c20 14 43 23 50 20 7 -3 23 -1 37 5 21 8 22 10 7 16 -21 9 -24 25 -4 25 15 0 26 -21 26 -51 0 -23 15 -25 24 -4 3 8 17 15 32 15 24 0 26 3 21 29 -5 23 -2 30 19 40 36 16 94 14 94 -3 0 -9 -12 -16 -27 -18 -43 -5 -40 -32 7 -57 38 -20 41 -20 58 -3 10 10 28 18 40 18 21 0 24 -6 26 -51 1 -11 9 -21 17 -23 19 -3 31 32 23 64 -6 23 18 54 43 54 8 0 13 6 10 13 -2 6 -12 11 -21 9 -21 -4 -33 27 -16 38 8 5 25 3 42 -6 26 -13 28 -18 22 -57 -4 -25 -15 -49 -28 -59 -18 -15 -19 -19 -6 -28 8 -5 18 -10 21 -10 11 0 37 35 48 63 11 28 22 31 56 17 13 -5 26 -2 38 8 28 25 52 4 52 -43 0 -35 -3 -39 -33 -47 -41 -11 -52 -34 -23 -54 21 -15 29 -44 11 -44 -5 0 -13 7 -18 16 -5 8 -27 18 -48 21 -34 4 -45 1 -70 -21 -16 -14 -23 -26 -16 -26 6 0 12 4 12 10 0 5 7 7 15 4 8 -4 13 -9 11 -13 -13 -20 17 -35 71 -38 32 -1 87 -7 123 -13 71 -13 91 -14 162 -10 28 1 48 7 48 14 0 17 -35 65 -59 82 -12 9 -21 26 -21 40 0 15 -6 24 -15 24 -9 0 -18 7 -21 15 -7 17 -40 20 -49 5 -8 -12 -45 -13 -45 -1 0 5 6 11 14 14 8 3 16 18 18 34 3 26 6 28 48 28 77 1 80 -1 80 -60 0 -38 4 -54 15 -59 10 -4 19 3 25 19 6 15 9 254 9 575 0 516 -1 550 -18 550 -9 0 -25 -6 -34 -13 -12 -8 -47 -11 -122 -7 -57 3 -115 2 -127 -1 -16 -4 -30 2 -45 18 -24 25 -71 31 -90 12 -8 -8 -15 -6 -24 9 -10 17 -17 18 -41 10 -16 -6 -35 -19 -43 -30 -14 -21 -14 -21 -79 11 -36 18 -70 30 -76 26 -6 -4 -20 1 -30 10 -29 26 -73 16 -85 -20 -8 -23 -16 -30 -35 -30 -14 0 -31 5 -37 12 -14 12 -153 17 -153 5 0 -4 -11 -12 -24 -18 -28 -13 -36 -3 -36 46 0 39 -25 58 -48 36 -10 -9 -24 -16 -30 -16 -17 0 -66 49 -82 83 -8 18 -24 33 -34 35 -25 5 -63 -16 -69 -39 -8 -29 -31 -22 -45 13 -9 23 -9 35 0 45 8 10 7 17 -8 28 -10 7 -20 9 -22 4 -2 -5 -15 -9 -28 -9 -19 0 -24 -5 -24 -24 0 -29 -35 -41 -75 -26 -19 7 -39 6 -75 -6 -33 -11 -54 -13 -67 -6 -24 12 -157 10 -162 -3 -2 -5 17 -21 43 -34 48 -25 47 -41 0 -41 -12 0 -27 -7 -34 -15 -16 -19 -72 -21 -64 -2 4 10 -13 13 -76 14 -77 0 -80 0 -74 -21 4 -11 11 -26 16 -33 7 -9 2 -19 -15 -35 -13 -13 -26 -32 -28 -43 -6 -29 -23 -21 -27 12 -2 15 -9 34 -15 41 -9 12 -12 11 -18 -5 -7 -16 -8 -16 -8 4 -1 30 -13 34 -44 18 -15 -8 -27 -10 -27 -5 0 5 -16 12 -35 16 -19 3 -39 12 -43 20 -10 18 -59 -26 -68 -61 l-6 -24 -26 24 c-31 29 -40 30 -71 9 l-23 -16 3 48 c1 27 6 58 9 69 4 11 2 42 -5 69 -14 55 -10 80 11 72 8 -3 14 1 14 9 0 8 -6 12 -14 9 -8 -3 -19 3 -26 15 -14 28 -40 27 -41 -1 -4 -59 -8 -72 -30 -89 -13 -10 -24 -24 -25 -31 -4 -64 -17 -88 -65 -118 -31 -19 -49 -25 -49 -17 0 7 5 18 11 24 6 6 13 38 16 71 l4 61 -46 -2 c-30 -1 -49 3 -54 12 -7 11 -14 9 -36 -13 -28 -28 -26 -46 5 -46 11 0 31 -12 45 -26 l26 -26 -21 -15 c-15 -11 -20 -22 -16 -37 8 -32 -4 -66 -23 -66 -30 -1 -61 -36 -61 -72 0 -18 -4 -39 -9 -47 -10 -16 -41 67 -41 112 0 17 -11 49 -25 72 -13 23 -22 45 -18 49 3 3 -6 15 -20 27 -15 11 -27 26 -27 34 0 7 -4 15 -8 17 -5 2 -34 54 -65 116 -32 62 -68 125 -82 140 -14 15 -25 36 -25 48 0 50 -41 180 -74 235 -20 33 -36 63 -36 65 0 17 -106 139 -190 219 -96 92 -136 124 -183 146 -41 20 -47 26 -41 44 4 11 8 39 8 62 0 38 -5 49 -46 90 -25 27 -48 57 -50 68 -2 10 -13 22 -24 25 -12 3 -34 20 -49 38 -27 32 -30 33 -79 27 -43 -6 -55 -3 -78 14 -15 12 -29 30 -33 40 -3 10 -20 25 -38 32 -18 7 -48 23 -67 35 -19 13 -56 28 -82 33 -26 6 -68 19 -95 30 -46 18 -114 27 -271 36 l-73 4 3 -155 c1 -85 5 -160 10 -167 5 -8 8 -4 8 11 0 40 18 23 25 -23 8 -54 -18 -110 -51 -110 -10 -1 -18 -6 -16 -13 3 -16 -34 -52 -54 -52 -9 0 -14 6 -12 12 3 7 -1 19 -9 26 -11 11 -18 9 -44 -12 -17 -14 -26 -26 -20 -26 28 0 6 -31 -36 -52 -43 -21 -63 -23 -208 -26 -207 -3 -313 19 -257 54 13 9 35 8 84 -1 36 -6 70 -15 77 -19 16 -10 117 12 131 30 7 7 21 14 31 14 11 0 19 6 19 13 0 8 9 22 20 32 12 11 18 26 15 35 -3 10 2 23 10 30 14 12 14 15 -4 31 -11 11 -28 19 -37 19 -12 0 -7 10 20 36 20 19 34 38 32 42 -2 4 11 21 30 37 19 17 46 40 61 53 14 12 31 22 38 22 7 0 16 8 19 18 15 40 37 67 52 64 12 -3 15 1 10 14 -4 11 2 26 17 43 13 14 52 71 87 126 52 80 69 118 87 189 12 49 30 97 39 108 39 43 67 203 79 458 1 38 11 84 23 110 11 25 23 59 25 75 11 60 38 159 53 186 17 34 10 101 -16 139 -18 27 -60 150 -60 177 0 34 -75 151 -139 215 -36 37 -82 86 -101 109 -39 47 -51 53 -230 115 -105 37 -137 44 -201 44 -41 0 -78 -2 -80 -4z m-111 -844 c2 -7 10 -12 18 -12 8 0 17 -7 20 -15 4 -8 15 -15 25 -15 10 0 19 -4 19 -8 0 -5 12 -14 27 -21 19 -9 23 -15 14 -20 -18 -12 -200 -4 -244 11 -29 9 -43 9 -57 0 -21 -13 -30 -7 -30 20 0 10 11 24 25 30 14 6 25 17 25 24 0 18 26 23 94 20 35 -1 61 -7 64 -14z m644 -184 c-3 -15 -2 -19 7 -14 7 5 17 -5 25 -26 l14 -33 4 40 3 40 17 -26 c14 -19 20 -56 24 -145 10 -177 -16 -267 -68 -235 -13 8 -23 9 -27 3 -16 -25 -143 -31 -171 -8 -8 7 -31 19 -50 26 -19 7 -42 18 -50 24 -37 27 -59 35 -66 25 -3 -6 -1 -16 5 -22 32 -32 -7 -56 -47 -27 -42 30 -202 34 -259 7 -24 -12 -46 -18 -50 -14 -3 4 1 23 10 42 13 27 14 35 4 35 -7 0 -18 -5 -25 -12 -7 -7 -12 -8 -12 -3 0 6 -3 6 -8 0 -4 -5 -38 -26 -76 -45 -56 -28 -83 -35 -143 -38 -47 -2 -73 1 -73 7 0 6 -7 11 -15 11 -8 0 -14 3 -13 8 4 12 -33 62 -42 57 -4 -3 -11 2 -14 10 -4 10 3 20 19 27 14 6 25 16 25 22 0 7 44 12 131 13 72 1 153 7 180 13 36 9 53 9 63 1 30 -25 96 41 101 102 1 10 13 30 27 44 24 23 28 24 54 12 17 -8 38 -33 51 -58 41 -83 43 -84 211 -89 l148 -4 18 27 c11 17 23 24 33 21 61 -24 79 63 32 156 -12 23 -12 61 0 54 5 -3 7 -16 3 -28z m-4515 -2609 c108 -11 113 -13 107 -33 -13 -42 -22 -45 -112 -40 -48 2 -94 7 -102 11 -8 3 -33 5 -55 4 -30 -2 -46 3 -59 18 -11 12 -14 21 -8 21 7 0 12 7 12 15 0 19 58 20 217 4z m258 -50 c4 -6 14 -7 24 -4 59 25 287 8 351 -26 19 -10 30 -18 23 -19 -6 0 -15 -21 -19 -46 -4 -31 -10 -44 -20 -40 -7 3 -32 10 -54 16 -28 7 -44 18 -47 31 -4 14 -9 17 -18 9 -7 -6 -17 -10 -21 -9 -5 1 -17 -1 -27 -6 -20 -8 -71 20 -62 35 4 6 -7 10 -23 10 -16 0 -42 2 -58 4 -16 2 -21 1 -11 -1 25 -6 21 -23 -7 -23 -25 0 -56 36 -56 65 0 17 16 20 25 4z m695 -59 c58 -11 135 -20 172 -20 62 0 68 -2 68 -20 0 -23 -31 -41 -38 -22 -5 16 -27 15 -63 -4 -29 -14 -32 -14 -51 2 -12 12 -22 15 -26 8 -4 -6 -17 -16 -30 -23 -17 -9 -21 -18 -16 -33 5 -18 3 -20 -17 -15 -13 4 -34 7 -46 7 -18 0 -23 6 -23 24 0 37 -18 78 -31 70 -6 -3 -9 -18 -6 -33 3 -15 2 -33 -4 -41 -7 -12 -9 -12 -9 -1 0 10 -8 12 -30 8 -16 -4 -32 -2 -36 4 -4 7 -10 6 -19 -1 -10 -8 -14 -4 -20 17 -6 26 -7 27 -20 9 -24 -32 -47 -13 -40 31 12 69 7 67 98 60 45 -4 129 -16 187 -27z m7574 -121 c12 -18 23 -21 78 -19 82 4 140 2 146 -5 3 -3 -3 -11 -13 -19 -10 -7 -20 -24 -22 -36 -5 -33 -9 -35 -38 -20 -19 10 -30 11 -50 2 -32 -15 -179 -16 -206 -2 -16 9 -49 58 -49 74 0 2 21 4 47 3 37 0 50 4 62 21 20 27 26 27 45 1z m-1867 -423 c-3 -8 -16 -16 -29 -18 -33 -4 -35 -36 -4 -48 36 -13 53 -52 38 -85 -7 -14 -12 -37 -12 -50 0 -41 -51 -31 -64 13 -4 12 -10 22 -14 22 -4 0 -5 36 -2 81 5 81 5 81 40 99 36 19 57 13 47 -14z m1137 -22 c4 -9 13 -14 21 -10 11 4 15 -2 15 -23 0 -45 -28 -101 -55 -111 -14 -5 -25 -14 -25 -18 0 -5 -10 -21 -21 -36 l-21 -27 -19 30 c-21 34 -34 38 -63 16 -27 -21 -42 -19 -24 3 8 9 19 29 26 44 6 16 20 28 34 30 17 2 24 11 26 30 2 15 11 30 21 33 10 3 28 17 41 30 27 29 36 31 44 9z m551 -6 c19 -13 35 -30 36 -38 2 -31 -2 -77 -13 -127 -9 -41 -15 -53 -30 -53 -10 0 -18 5 -18 10 0 6 -5 10 -11 10 -8 0 -9 -15 -5 -45 8 -52 -7 -75 -47 -75 -36 0 -80 45 -71 73 8 27 5 23 30 31 15 4 24 2 28 -9 5 -14 36 -22 36 -10 0 3 -11 28 -25 55 -30 60 -32 100 -4 157 24 50 42 54 94 21z m158 -8 c27 -31 24 -153 -4 -179 -17 -15 -20 -29 -18 -71 3 -51 2 -53 -30 -66 -18 -8 -37 -11 -42 -8 -6 3 -7 48 -4 107 8 127 10 138 33 165 12 14 17 31 14 47 -3 20 0 25 15 25 10 0 26 -9 36 -20z m-1753 -149 c0 -15 -5 -32 -12 -39 -6 -6 -11 -30 -10 -52 1 -22 -3 -49 -10 -59 -18 -29 -2 -71 27 -71 32 0 51 -33 29 -51 -9 -7 -20 -23 -24 -35 -6 -15 -19 -23 -44 -26 -22 -2 -36 0 -36 7 0 6 -6 20 -14 30 -13 19 -15 18 -24 -15 -8 -29 -11 -32 -17 -16 -5 11 -3 26 3 37 7 10 12 29 12 43 0 13 7 29 15 36 8 7 15 25 15 41 0 19 9 37 25 51 23 19 25 27 19 65 -5 32 -2 50 10 68 20 31 36 24 36 -14z m87 -9 c-19 -21 -23 -52 -6 -52 7 0 5 -10 -5 -25 -21 -32 -21 -59 0 -51 54 21 62 19 78 -19 18 -41 21 -121 6 -130 -15 -9 0 -35 21 -35 10 0 19 5 19 10 0 6 8 10 19 10 13 0 20 -10 25 -31 4 -21 10 -29 20 -26 9 4 29 -15 55 -53 23 -32 41 -62 41 -67 0 -4 23 -33 51 -63 27 -30 59 -72 69 -92 11 -20 27 -41 35 -46 10 -5 18 -29 22 -65 5 -52 4 -57 -14 -57 -11 0 -26 7 -33 15 -7 8 -21 15 -32 15 -16 0 -19 5 -14 23 7 29 -25 47 -85 47 -30 0 -47 -7 -71 -31 -24 -23 -40 -30 -60 -27 -23 4 -28 0 -31 -21 -3 -24 -4 -24 -11 -6 -4 11 -12 28 -17 37 -11 21 -12 62 -2 71 3 4 8 51 9 105 2 53 5 125 8 160 3 49 1 62 -10 62 -8 0 -14 -10 -14 -24 0 -13 -7 -29 -15 -36 -9 -7 -13 -21 -10 -31 4 -11 2 -19 -5 -19 -8 0 -10 -12 -5 -39 4 -24 2 -41 -5 -46 -6 -4 -10 -23 -9 -43 2 -20 -3 -47 -10 -60 -10 -18 -10 -27 0 -38 9 -11 8 -14 -5 -14 -9 0 -16 -6 -16 -12 0 -7 -18 12 -39 42 -39 53 -68 135 -62 173 2 15 -2 17 -17 13 -26 -9 -36 9 -33 53 3 46 8 52 34 42 32 -12 70 8 63 33 -5 21 22 76 38 76 13 0 35 32 36 51 0 24 -46 42 -72 28 -19 -10 -20 -9 -13 12 5 13 10 61 12 107 3 45 9 82 14 82 6 0 17 7 26 16 23 23 42 1 20 -24z m-350 -102 c22 0 43 -59 43 -121 0 -23 5 -59 11 -80 10 -32 9 -42 -5 -63 -20 -31 -20 -46 -1 -46 10 0 15 10 15 31 0 40 19 34 45 -13 17 -32 18 -40 6 -61 -8 -14 -11 -37 -7 -50 7 -28 36 -45 36 -22 0 42 40 -3 94 -105 22 -41 48 -89 57 -107 16 -28 16 -34 4 -47 -8 -8 -15 -21 -15 -30 0 -8 -4 -18 -10 -21 -22 -14 -8 -25 31 -25 l42 0 -8 -47 c-4 -27 -9 -73 -10 -103 -2 -30 -8 -86 -14 -123 -15 -98 -25 -109 -53 -54 -19 36 -52 149 -65 217 -7 39 -11 45 -31 42 -17 -2 -22 2 -22 17 0 15 6 21 21 21 20 0 21 4 15 53 -14 115 -19 143 -28 154 -5 7 -7 20 -4 30 3 10 1 25 -4 33 -9 13 -11 13 -19 0 -5 -8 -7 -18 -4 -23 9 -14 25 -135 25 -190 1 -50 -21 -81 -49 -70 -16 6 -76 -17 -67 -26 3 -3 9 -6 12 -7 4 0 15 -4 25 -9 10 -4 29 -3 42 3 25 12 32 7 54 -36 14 -26 41 -125 41 -147 0 -8 -7 -15 -15 -15 -23 0 -18 -16 20 -57 19 -21 35 -45 35 -53 0 -9 5 -21 11 -27 14 -14 22 -114 10 -144 -8 -21 -10 -22 -16 -6 -7 17 -35 25 -35 9 0 -4 -22 -17 -49 -30 -27 -12 -51 -29 -55 -37 -3 -8 -12 -12 -21 -9 -11 4 -15 0 -16 -17 -1 -48 -59 -159 -83 -159 -5 0 -15 -8 -22 -17 -7 -10 -16 -15 -20 -11 -4 4 -1 14 6 22 9 12 9 27 1 63 -35 159 -44 242 -30 259 9 11 8 18 -5 32 -9 10 -16 30 -16 45 0 14 -4 29 -10 32 -5 3 -10 28 -10 55 0 40 3 48 15 44 17 -7 21 16 5 32 -7 7 -6 20 5 40 8 16 15 35 15 42 0 7 16 36 35 65 41 61 46 112 15 171 -18 33 -19 43 -9 74 6 21 15 42 20 48 14 17 39 151 39 205 0 61 -30 177 -76 289 -38 93 -42 115 -19 106 8 -3 15 0 15 7 1 7 9 2 19 -10 11 -13 28 -23 38 -23z m-4047 -132 c0 -54 -11 -75 -23 -45 -4 7 -6 6 -6 -4 -1 -9 -7 -22 -15 -28 -7 -6 -11 -22 -8 -36 5 -28 22 -34 22 -7 0 9 7 26 15 36 14 19 15 18 15 -16 0 -20 19 -105 41 -189 l42 -154 -12 -106 c-9 -78 -9 -117 -2 -147 8 -27 8 -48 1 -67 -5 -14 -10 -37 -10 -51 0 -37 -19 -29 -40 19 -11 23 -40 74 -65 112 -25 39 -48 76 -52 84 -8 18 25 268 49 365 10 43 17 80 14 83 -12 12 -24 -11 -30 -59 -4 -29 -15 -71 -25 -93 -10 -22 -21 -48 -24 -57 -13 -38 -22 -15 -25 60 -2 83 1 93 35 111 19 9 21 15 13 36 -7 18 -5 28 6 40 9 8 11 15 5 15 -20 0 -12 35 19 83 16 26 33 59 36 73 10 41 24 8 24 -58z m5370 35 c0 -28 -26 -91 -43 -105 -23 -20 -37 -23 -37 -7 0 5 -4 7 -10 4 -5 -3 -10 -21 -10 -38 0 -21 -7 -36 -20 -45 -11 -7 -20 -20 -20 -30 0 -32 -89 -78 -104 -54 -20 33 56 166 81 141 7 -7 12 3 17 30 7 47 19 57 41 35 19 -20 28 -12 45 39 9 29 17 37 36 37 13 0 24 -3 24 -7z m-502 -30 c2 -15 8 -20 18 -16 17 6 54 -23 54 -43 0 -7 16 -29 35 -49 34 -37 55 -105 41 -140 -8 -22 -23 -18 -29 7 -4 12 -10 19 -14 14 -12 -11 -10 -130 2 -139 7 -6 6 -10 -1 -13 -8 -4 -9 -17 -2 -46 8 -37 1 -69 -9 -40 -3 6 -9 12 -14 12 -6 0 -7 -4 -4 -10 3 -5 2 -10 -4 -10 -17 0 -24 21 -23 66 2 43 -13 68 -24 40 -14 -37 -60 7 -52 51 1 11 -3 27 -10 36 -19 23 -28 127 -12 137 15 9 5 30 -16 30 -15 0 -19 25 -5 34 5 4 15 29 22 56 9 36 17 50 28 48 9 -2 17 -13 19 -25z m-88 -693 c0 -11 3 -12 8 -3 15 23 32 -2 26 -38 -3 -19 -7 -53 -9 -76 -2 -39 -40 -129 -58 -140 -17 -10 -57 7 -57 25 0 10 -4 22 -9 27 -5 6 -13 27 -16 48 -7 37 1 47 22 26 7 -7 19 -1 40 20 28 28 29 29 7 27 -13 -1 -30 -8 -38 -16 -12 -9 -16 -9 -16 -1 0 7 -4 9 -10 6 -6 -4 -10 7 -10 24 0 34 -11 38 -55 21 -20 -8 -25 -15 -20 -29 6 -19 -7 -33 -33 -37 -17 -3 -27 43 -12 61 10 12 9 16 -3 21 -9 3 -20 3 -26 0 -11 -7 -19 13 -14 34 6 23 283 23 283 0z m206 -8 c6 -13 17 -29 23 -35 6 -6 11 -19 11 -30 0 -12 4 -16 13 -10 6 4 4 -5 -6 -20 -12 -18 -16 -36 -11 -50 l7 -22 8 23 c11 30 37 28 49 -4 31 -82 42 -176 34 -300 -6 -85 -8 -92 -33 -106 -14 -9 -49 -19 -78 -23 -53 -7 -73 -26 -53 -50 7 -8 4 -17 -9 -29 -16 -14 -23 -15 -41 -6 -16 9 -25 9 -33 1 -16 -16 -37 -13 -31 4 4 8 12 15 20 15 21 0 17 21 -6 27 -10 3 -29 21 -40 40 -17 30 -19 40 -10 74 10 36 13 39 46 39 30 0 37 4 47 30 8 22 18 30 35 30 15 0 22 5 19 13 -6 17 23 66 42 69 11 2 16 20 18 68 2 72 -2 84 -34 94 -18 6 -27 -1 -52 -37 -28 -42 -84 -77 -98 -63 -4 3 3 20 15 36 25 34 28 50 8 50 -9 0 -12 8 -9 25 4 17 15 28 42 36 20 7 45 18 56 25 17 12 17 14 2 14 -11 0 -17 8 -17 21 0 15 -4 19 -16 15 -9 -3 -27 -9 -41 -12 -22 -6 -24 -4 -21 22 3 25 8 30 41 35 20 3 40 9 44 13 14 13 48 1 59 -22z m-34 -233 c2 -5 2 -27 0 -47 -3 -28 -12 -43 -38 -62 -18 -14 -36 -33 -40 -43 -4 -14 -12 -17 -32 -13 -15 4 -22 3 -15 -1 17 -12 -12 -47 -32 -39 -12 4 -15 13 -10 35 3 17 2 32 -4 36 -19 11 -12 21 39 56 27 19 50 37 50 42 0 4 7 7 15 7 8 0 15 5 15 10 0 6 7 10 15 10 8 0 15 5 15 10 0 13 17 13 22 -1z m-1047 -111 c2 -18 8 -62 15 -98 18 -102 27 -210 22 -275 -2 -33 -5 -81 -6 -107 -1 -47 -18 -70 -24 -32 -2 10 -6 26 -9 34 -3 8 -7 29 -9 45 -2 17 -7 37 -11 45 -4 8 -8 29 -9 45 -1 17 -4 48 -7 70 -3 23 0 53 8 73 13 30 13 34 -5 52 -22 22 -23 83 -3 130 6 14 14 34 17 44 9 25 17 14 21 -26z m670 -487 c-7 -31 11 -46 40 -34 9 3 24 -2 35 -12 15 -14 25 -15 52 -6 18 5 49 14 68 18 28 7 36 14 38 36 4 33 24 35 37 5 6 -13 20 -27 33 -33 32 -14 27 -23 -15 -30 -21 -4 -54 -13 -73 -20 -19 -8 -54 -19 -78 -25 -24 -6 -46 -18 -49 -26 -3 -7 -17 -14 -32 -14 -15 0 -32 -5 -38 -11 -6 -6 -20 -8 -32 -4 -26 8 -28 43 -3 61 16 13 16 15 -7 34 -23 20 -23 21 -7 55 21 43 40 47 31 6z m-4672 -965 c20 0 21 -17 2 -71 -8 -22 -18 -75 -21 -117 l-7 -77 -46 -15 c-73 -23 -101 -27 -101 -16 0 5 5 10 11 10 5 0 7 5 4 10 -3 6 1 10 10 10 11 0 15 7 13 23 -2 17 1 21 15 19 34 -6 87 18 87 40 0 19 -1 19 -35 -2 -26 -16 -35 -18 -35 -8 0 16 36 49 44 41 3 -4 6 4 6 16 0 12 -3 20 -7 18 -17 -10 -53 13 -53 33 0 11 -7 20 -15 20 -26 0 -16 24 23 52 27 19 44 25 62 20 14 -3 33 -6 43 -6z"/>
<path d="M480 5737 c0 -21 4 -23 38 -22 54 2 99 -13 126 -42 20 -22 29 -24 64 -18 22 3 48 12 58 19 16 12 16 17 4 46 -12 29 -14 30 -24 13 -8 -13 -23 -18 -58 -19 -27 0 -48 3 -48 8 0 4 -6 8 -14 8 -7 0 -19 6 -25 14 -7 8 -33 14 -66 15 -51 1 -55 -1 -55 -22z"/>
<path d="M1586 3701 c-26 -42 -92 -322 -106 -451 -18 -158 -18 -158 -30 -208 -12 -47 -13 -47 -55 -46 -23 1 -53 9 -68 19 -45 29 -207 4 -207 -32 0 -10 -10 -12 -40 -7 -25 4 -40 3 -40 -4 0 -11 60 -23 75 -14 13 8 184 13 213 7 13 -3 20 -10 17 -15 -3 -6 -1 -10 4 -10 6 0 11 7 11 16 0 11 6 14 23 8 12 -4 50 -7 85 -7 69 1 99 16 71 36 -8 7 -18 22 -21 33 -5 20 9 92 26 135 9 22 67 53 93 51 15 -1 23 4 23 13 0 8 3 15 8 15 4 0 15 12 25 25 25 34 11 53 -18 25 -19 -18 -30 -20 -69 -15 -32 5 -47 13 -51 26 -3 10 -8 28 -11 39 -4 14 -1 20 10 20 10 0 16 9 16 26 0 16 -4 23 -12 18 -19 -12 -1 113 28 191 14 39 26 79 27 89 2 21 -17 33 -27 17z"/>
<path d="M8964 3607 c-22 -13 -58 -27 -78 -30 -21 -3 -46 -13 -56 -22 -9 -8 -30 -15 -47 -15 -39 0 -46 -18 -19 -51 12 -15 26 -33 31 -42 7 -11 32 -18 75 -22 36 -3 92 -13 125 -22 33 -8 91 -17 129 -19 37 -3 71 -5 75 -6 3 0 27 0 54 1 35 1 47 5 47 16 0 16 -48 64 -63 65 -17 0 -46 46 -47 72 0 42 -58 76 -160 94 -15 3 -41 -5 -66 -19z"/>
<path d="M4 3325 c2 -44 9 -100 15 -125 7 -25 17 -70 22 -100 6 -30 16 -72 22 -94 6 -21 10 -47 10 -56 -1 -10 4 -21 12 -23 7 -3 16 -24 20 -46 4 -25 11 -39 17 -35 7 5 9 -2 6 -20 -3 -14 -2 -26 3 -26 4 0 11 -15 14 -32 4 -18 12 -38 17 -45 5 -7 7 -21 3 -32 -5 -16 -3 -20 9 -15 9 4 16 1 16 -6 0 -8 -8 -10 -21 -7 -12 3 -33 1 -48 -5 -97 -39 -103 -40 -113 -26 -5 8 -8 1 -8 -20 0 -28 5 -35 35 -48 38 -16 55 -12 55 12 0 17 22 18 39 2 10 -11 15 -9 26 5 7 10 32 21 56 26 25 4 43 12 41 19 -3 15 14 16 23 2 9 -15 20 -12 49 15 22 21 34 24 64 19 24 -3 44 -1 56 9 25 19 14 47 -18 47 -18 0 -26 6 -28 23 -4 22 -4 22 -17 -4 -10 -20 -18 -24 -42 -21 -24 3 -29 1 -29 -15 0 -23 -29 -53 -51 -53 -8 0 -22 9 -32 20 -14 17 -15 28 -7 71 6 29 8 55 5 57 -3 3 -5 -2 -5 -11 0 -17 -18 -33 -27 -23 -3 3 -1 12 6 19 8 11 6 18 -9 32 -11 10 -20 24 -20 31 0 7 -5 14 -10 16 -18 6 -25 79 -9 89 10 7 8 9 -11 7 -21 -3 -25 2 -32 40 -4 23 -14 52 -22 64 -9 12 -16 32 -16 43 0 11 -13 64 -30 118 -16 54 -27 103 -25 110 3 6 1 26 -5 42 -7 23 -8 11 -6 -50z"/>
<path d="M765 3303 c3 -32 7 -90 9 -129 2 -40 7 -77 10 -83 10 -15 -3 -53 -15 -45 -5 3 -2 -10 7 -28 12 -25 13 -42 7 -68 -8 -31 -13 -35 -45 -36 -61 -2 -107 -74 -52 -82 14 -2 29 6 42 22 24 32 58 37 42 7 -27 -52 4 -77 83 -64 20 3 37 1 41 -6 4 -6 18 -8 31 -5 12 3 26 1 29 -5 8 -12 125 -15 142 -3 6 4 16 17 22 29 7 12 22 23 34 25 13 2 24 11 26 22 3 15 0 18 -17 13 -12 -3 -24 -1 -27 4 -3 5 0 9 6 9 7 0 2 11 -11 25 -31 32 -53 33 -45 1 5 -22 3 -24 -54 -30 -33 -4 -65 -4 -71 0 -6 4 -15 1 -19 -7 -7 -10 -14 -10 -34 -1 -16 7 -26 8 -26 2 0 -6 -7 -10 -15 -10 -8 0 -15 5 -15 10 0 6 5 10 10 10 16 0 12 20 -10 47 -14 19 -20 41 -20 82 -1 31 -5 76 -10 101 -5 25 -14 84 -20 132 -11 94 -17 118 -31 118 -5 0 -7 -26 -4 -57z"/>
<path d="M8140 2828 c0 -10 12 -30 27 -43 l28 -23 -42 -17 c-24 -9 -40 -21 -37 -26 3 -5 -16 -8 -43 -6 -36 1 -48 -2 -48 -12 0 -24 75 -60 128 -61 44 0 48 -2 53 -28 8 -41 63 -60 184 -65 27 -2 37 3 45 20 11 26 60 37 102 23 41 -15 139 -9 135 8 -1 7 9 12 25 11 24 0 25 -2 9 -8 -32 -12 -4 -20 41 -11 24 4 54 5 67 3 32 -6 44 15 12 23 -27 6 -39 26 -29 49 3 9 -2 22 -13 30 -25 19 -26 19 -52 -5 -13 -12 -23 -16 -27 -9 -5 7 -15 5 -31 -5 -33 -22 -37 -20 -31 13 l6 29 -62 4 c-41 3 -70 0 -84 -9 -13 -7 -23 -10 -23 -5 0 4 -41 9 -91 11 -119 3 -165 29 -99 54 38 14 39 44 3 58 -16 6 -56 12 -90 14 -56 2 -63 1 -63 -17z"/>
<path d="M1287 2518 c-22 -22 -43 -54 -49 -70 -7 -18 -15 -27 -24 -24 -8 3 -14 -1 -14 -9 0 -8 -7 -15 -15 -15 -8 0 -15 -9 -15 -20 0 -13 -7 -20 -19 -20 -10 0 -30 -9 -44 -20 -14 -11 -32 -20 -41 -20 -9 0 -24 -9 -33 -20 -17 -20 -43 -27 -43 -12 0 12 -59 31 -66 21 -3 -5 -2 -8 3 -7 4 2 9 -1 10 -7 2 -5 -7 -10 -19 -10 -15 0 -24 -8 -29 -27 -9 -34 -3 -40 38 -32 21 4 33 2 33 -5 0 -6 -5 -11 -11 -11 -5 0 2 -11 17 -25 17 -16 34 -23 43 -19 32 13 73 16 66 5 -3 -7 2 -11 14 -11 10 0 22 -6 24 -12 4 -8 6 -7 6 4 1 9 -2 18 -6 21 -5 2 -1 1 7 -1 8 -3 28 -5 44 -4 17 1 38 -6 48 -15 14 -12 27 -14 60 -8 24 5 75 7 113 5 39 -1 97 -2 130 -1 283 8 295 8 295 -5 0 -16 43 -29 65 -20 21 8 19 23 -5 31 -21 7 -28 25 -10 25 6 0 10 9 10 21 0 15 4 19 16 15 8 -3 24 -1 35 4 18 10 18 12 2 29 -10 10 -42 35 -72 55 -45 32 -57 36 -80 28 -14 -5 -40 -10 -57 -11 -26 -1 -34 4 -44 29 -7 16 -16 30 -21 30 -5 0 -21 14 -36 30 -21 24 -35 30 -65 30 -22 0 -49 5 -60 11 -16 8 -22 8 -28 -2 -6 -9 -12 -9 -24 4 -23 23 -20 28 12 21 22 -5 25 -4 15 6 -10 11 -20 11 -48 3 -36 -12 -75 -7 -75 8 0 5 18 9 40 9 48 0 54 20 13 40 -50 23 -66 20 -106 -22z"/>
<path d="M25 2309 c4 -13 2 -19 -9 -19 -11 0 -16 -9 -16 -30 0 -30 21 -42 35 -20 3 6 26 10 51 10 25 0 61 7 82 15 24 11 38 12 40 5 6 -17 32 -40 45 -39 9 0 8 2 0 6 -24 9 -13 23 18 23 17 0 28 -4 24 -10 -3 -5 1 -10 9 -10 9 0 16 7 16 15 0 11 5 12 25 5 14 -5 32 -7 40 -4 10 4 15 0 15 -10 0 -9 8 -16 20 -16 11 0 20 7 20 15 0 16 15 20 24 7 6 -10 193 6 229 20 34 13 34 20 0 36 -33 15 -60 16 -68 2 -11 -17 -166 -12 -186 6 -23 21 -66 10 -48 -12 12 -15 7 -15 -38 3 -10 3 -52 8 -93 9 -41 1 -112 5 -158 8 -79 5 -83 4 -77 -15z"/>
<path d="M6781 2249 c-29 -37 -69 -48 -86 -25 -19 25 -75 18 -75 -10 0 -8 -10 -14 -24 -14 -14 0 -28 -4 -31 -10 -3 -5 -18 -10 -33 -10 -15 0 -45 -11 -67 -25 -22 -13 -48 -25 -57 -25 -9 0 -29 -7 -45 -15 -15 -8 -58 -22 -96 -31 -37 -9 -75 -23 -85 -30 -16 -11 -15 -13 10 -23 16 -6 88 -13 160 -17 l133 -6 90 45 c50 24 118 55 152 67 35 12 80 37 100 55 34 29 37 35 28 60 -15 43 -46 49 -74 14z"/>
<path d="M80 2190 c0 -6 -15 -8 -40 -4 l-40 7 0 -107 c0 -69 4 -105 10 -101 5 3 10 1 10 -4 0 -6 -4 -11 -10 -11 -6 0 -10 -31 -10 -74 l0 -74 34 3 c19 2 42 8 53 13 10 6 52 13 93 16 121 11 153 17 188 41 30 21 32 24 17 39 -9 9 -23 16 -31 16 -10 0 -13 7 -8 25 5 20 2 25 -19 30 -18 5 -24 13 -23 31 0 13 4 24 9 24 4 0 7 6 7 14 0 9 -15 17 -40 21 -22 4 -40 11 -40 16 0 4 -6 6 -13 3 -8 -3 -20 2 -27 11 -14 17 -56 20 -65 5 -5 -8 -11 -7 -20 0 -8 7 -19 9 -24 6 -5 -4 -12 -2 -16 4 -3 5 -1 10 5 10 6 0 8 5 5 10 -3 6 1 10 9 10 9 0 16 7 16 15 0 8 -7 15 -15 15 -8 0 -15 -5 -15 -10z"/>
<path d="M9263 2072 c-15 -2 -23 -10 -23 -22 0 -11 -9 -24 -20 -30 -27 -14 -25 -24 8 -36 25 -10 81 -6 182 11 19 4 46 2 59 -3 18 -6 39 -4 75 10 28 10 53 18 56 19 3 0 -4 4 -15 9 -11 5 -48 9 -82 9 -52 1 -65 5 -75 21 -16 26 -53 26 -86 -1 -26 -20 -27 -20 -42 -2 -8 10 -25 17 -37 15z"/>
<path d="M8866 1980 c-22 -11 -46 -20 -53 -20 -7 0 -13 -4 -13 -9 0 -5 -24 -10 -52 -11 -144 -5 -198 -2 -251 14 -70 21 -93 16 -77 -15 9 -16 19 -20 41 -17 23 4 26 2 17 -9 -9 -11 -35 -13 -107 -11 -53 2 -104 7 -113 12 -13 6 -18 4 -18 -7 0 -10 -14 -18 -40 -22 -25 -4 -40 -12 -40 -21 0 -8 -5 -14 -11 -14 -6 0 -4 -7 5 -15 18 -19 27 -19 62 0 33 17 128 30 145 20 8 -6 0 -14 -25 -27 -20 -10 -36 -22 -36 -27 0 -4 18 -16 41 -26 39 -18 42 -18 74 -1 20 11 43 16 58 12 13 -3 32 0 42 8 22 16 65 2 65 -21 0 -7 7 -13 15 -13 8 0 12 -6 9 -13 -6 -16 21 -41 34 -33 6 3 26 -1 46 -9 30 -13 44 -13 76 -4 22 7 40 16 40 21 0 4 10 8 23 8 12 0 35 7 51 15 15 8 45 15 66 15 24 0 40 5 44 15 3 8 18 15 34 15 15 0 37 7 48 15 10 8 27 15 37 15 9 0 17 4 17 9 0 7 81 31 103 31 1 0 2 -21 2 -46 0 -39 5 -50 29 -69 15 -12 36 -21 45 -19 23 6 45 -11 38 -30 -10 -24 -57 -21 -57 4 0 12 -7 20 -17 20 -10 0 -27 7 -37 15 -17 13 -22 13 -36 0 -20 -18 -52 -20 -163 -7 -52 6 -105 6 -130 1 -66 -14 -117 -31 -117 -41 0 -4 -7 -8 -15 -8 -8 0 -15 -6 -15 -14 0 -8 -14 -18 -32 -21 -27 -6 -29 -9 -13 -17 12 -7 36 -5 79 6 43 12 99 17 186 16 69 0 137 -1 153 -1 29 0 36 -13 12 -23 -8 -3 -15 -12 -15 -21 0 -8 -8 -15 -17 -15 -40 1 -133 -35 -130 -50 1 -8 -4 -15 -10 -16 -26 -3 -28 -4 -15 -13 8 -5 -11 -7 -45 -5 -32 2 -105 -1 -163 -5 -88 -7 -115 -14 -165 -40 -33 -17 -67 -31 -75 -31 -9 0 -25 -6 -36 -14 -19 -15 -19 -15 1 -31 16 -12 34 -14 83 -10 39 3 70 1 84 -6 16 -9 23 -9 26 0 4 12 32 16 32 4 0 -8 37 -27 110 -58 41 -17 34 -18 -82 -19 -62 -1 -78 2 -78 13 0 12 -3 12 -12 3 -7 -7 -22 -12 -34 -12 -13 0 -26 -4 -29 -10 -3 -5 -11 -10 -16 -10 -5 0 2 12 16 27 15 16 20 30 14 32 -6 2 -14 -1 -18 -6 -9 -15 -81 -26 -81 -13 0 5 -13 10 -29 10 -16 0 -36 7 -45 15 -16 17 -86 21 -86 5 0 -5 -17 -10 -37 -10 -27 0 -48 -9 -73 -30 -30 -25 -32 -30 -14 -30 11 0 25 -5 32 -12 8 -8 15 -8 24 -1 12 10 62 21 118 26 14 1 28 6 31 10 8 11 36 -1 43 -18 4 -11 -2 -13 -25 -8 -22 4 -33 1 -44 -13 -23 -30 -18 -35 33 -35 42 0 186 -3 362 -8 36 -2 79 1 96 4 18 4 57 0 93 -9 76 -19 110 -20 134 -1 18 13 18 14 -1 24 -12 6 -28 8 -36 5 -11 -4 -16 0 -16 14 0 11 -8 23 -17 26 -10 3 -4 4 12 2 17 -2 49 -11 72 -20 38 -14 49 -14 100 -1 31 8 59 19 62 23 3 4 59 13 124 20 66 6 124 15 130 21 7 5 26 11 42 13 l30 3 3 234 c1 154 -1 238 -8 246 -8 9 -7 14 2 17 11 4 11 11 0 39 -8 22 -9 35 -2 37 5 2 10 21 10 43 0 44 -10 48 -56 24 -16 -8 -36 -15 -44 -15 -17 0 -40 -19 -40 -31 0 -4 15 -9 33 -11 23 -2 7 -8 -59 -22 -87 -17 -95 -17 -150 -1 -33 9 -67 24 -76 32 -20 18 -51 14 -119 -15 -42 -18 -46 -23 -47 -57 -2 -44 -8 -53 -24 -37 -20 20 -101 15 -126 -9 -22 -20 -47 -17 -39 5 2 6 -10 18 -27 27 l-32 17 4 -29 c3 -20 0 -29 -9 -29 -8 0 -36 -12 -64 -25 -27 -14 -63 -25 -78 -25 l-29 0 31 26 c19 16 49 28 78 32 38 6 49 11 51 28 2 14 -5 24 -23 32 -23 11 -24 14 -12 27 10 10 44 15 116 17 59 2 101 7 101 13 0 6 9 16 20 23 11 7 20 19 20 27 0 22 -86 19 -134 -5z"/>
<path d="M7900 1905 c-7 -8 -21 -15 -32 -15 -10 0 -35 -7 -56 -16 -53 -23 -143 -34 -164 -20 -13 8 -21 7 -30 -2 -9 -9 -7 -12 13 -12 13 0 31 -5 39 -10 13 -9 13 -11 0 -20 -8 -5 -27 -10 -42 -10 -16 0 -28 -4 -28 -10 0 -5 -7 -10 -15 -10 -8 0 -15 -4 -15 -10 0 -10 155 -8 166 3 3 3 -4 10 -15 17 -26 13 -27 30 -3 30 10 0 23 5 28 10 9 9 43 14 184 24 19 2 54 6 78 11 35 6 42 11 42 31 0 27 -11 29 -77 13 -34 -9 -47 -9 -52 0 -6 9 -11 8 -21 -4z"/>
<path d="M206 1703 c-4 -4 -23 -6 -42 -5 -48 4 -74 -6 -75 -26 0 -11 -3 -12 -6 -4 -7 18 -53 15 -53 -3 0 -8 -7 -15 -15 -15 -12 0 -15 -13 -15 -56 0 -56 0 -56 22 -42 13 9 23 22 24 29 0 8 2 22 2 32 3 27 32 21 32 -7 0 -19 4 -23 19 -19 12 3 17 11 14 23 -3 13 4 20 28 29 43 15 59 14 59 -4 0 -8 10 -16 23 -16 46 -3 92 3 99 14 4 8 9 5 14 -7 4 -11 2 -21 -7 -26 -22 -14 -2 -23 36 -16 23 5 35 13 36 24 0 10 3 12 6 5 3 -9 29 -13 79 -13 52 0 74 -4 74 -12 0 -7 9 2 20 20 11 17 25 33 32 34 7 0 18 2 23 3 6 2 16 3 23 4 6 0 12 5 12 10 0 14 -49 22 -68 12 -11 -6 -42 -7 -75 -2 l-57 8 -9 -31 -8 -31 -15 36 c-19 44 -27 49 -53 38 -11 -4 -14 -8 -7 -8 13 -1 17 -57 4 -65 -18 -11 -35 12 -28 38 5 22 3 26 -16 27 -50 3 -71 -7 -48 -21 8 -5 12 -12 9 -15 -9 -9 -59 17 -58 29 4 33 -15 49 -35 29z"/>
<path d="M7825 1633 c-33 -9 -66 -22 -73 -30 -11 -11 -9 -15 14 -24 16 -5 40 -9 54 -8 14 0 41 0 60 -1 l35 -2 -35 -15 c-19 -9 -51 -15 -70 -14 -54 3 -115 -9 -99 -20 8 -5 64 -6 125 -2 108 6 111 5 117 -16 5 -20 10 -21 83 -18 69 3 78 5 85 25 7 18 5 22 -14 23 -17 0 -12 5 18 18 l40 18 -40 6 c-22 4 -59 7 -82 7 -24 0 -43 5 -43 10 0 6 17 10 38 10 36 0 105 39 72 40 -152 9 -232 7 -285 -7z"/>
<path d="M7420 1612 c-37 -6 -45 -19 -15 -26 57 -14 -8 -42 -120 -51 -29 -2 -57 -16 -84 -41 -23 -22 -23 -22 -3 -33 11 -6 35 -11 53 -11 26 0 30 -3 21 -12 -7 -7 -12 -19 -12 -27 0 -8 -12 -26 -27 -38 l-28 -23 50 6 c28 4 53 8 58 11 14 8 7 23 -13 23 -25 0 -27 27 -2 32 9 2 51 0 92 -5 95 -10 79 -11 190 7 52 8 113 16 134 18 22 2 41 8 43 15 5 14 -22 22 -95 27 -61 4 -64 6 -64 41 0 22 -5 25 -34 26 -19 1 -38 3 -44 4 -5 1 -26 3 -45 4 -19 0 -35 5 -35 9 0 5 10 8 21 8 12 -1 24 4 26 10 5 14 -36 31 -67 26z"/>
<path d="M8880 1610 c0 -5 -18 -10 -41 -10 -22 0 -49 -5 -60 -11 -11 -5 -52 -13 -91 -16 -48 -4 -77 -12 -89 -24 -9 -9 -35 -20 -57 -24 -22 -3 -43 -13 -46 -20 -8 -21 5 -25 50 -15 21 5 65 14 98 21 32 7 65 19 72 27 12 11 14 11 14 -2 0 -26 60 -21 67 5 6 20 11 21 77 16 39 -3 60 -3 46 0 -14 2 -29 8 -33 12 -10 10 119 32 139 24 8 -3 14 1 14 8 0 10 -21 15 -80 17 -50 1 -80 -1 -80 -8z"/>
<path d="M7480 1385 c-7 -8 -27 -17 -46 -21 -19 -3 -34 -10 -34 -16 0 -5 -13 -14 -30 -19 -16 -6 -30 -13 -30 -16 0 -10 30 -33 43 -33 9 0 17 -6 20 -12 3 -10 19 -9 73 4 38 9 81 19 97 22 39 9 34 24 -10 28 -43 4 -55 25 -19 34 35 8 33 20 -5 33 -41 14 -44 14 -59 -4z"/>
<path d="M1056 1325 c-11 -8 -28 -15 -38 -15 -9 0 -25 -9 -35 -19 -10 -10 -27 -20 -38 -22 -28 -6 -63 -63 -58 -93 4 -20 1 -25 -18 -28 -23 -3 -24 -7 -27 -86 -3 -76 -1 -84 17 -89 17 -4 13 -10 -27 -41 -26 -19 -49 -38 -52 -41 -14 -17 -48 -27 -66 -20 -12 4 -52 4 -89 -1 -37 -5 -193 -16 -346 -26 l-279 -18 0 -26 0 -27 93 5 c62 3 101 1 116 -7 28 -15 18 -31 -20 -31 -28 0 -43 -19 -16 -21 52 -5 92 17 82 44 -9 22 20 40 43 28 11 -6 22 -8 25 -4 9 8 169 23 190 17 9 -3 17 -11 17 -19 0 -14 45 -29 60 -20 6 4 10 12 10 20 0 8 17 19 38 24 47 14 62 14 62 1 0 -5 -6 -10 -14 -10 -26 0 -28 -19 -2 -26 56 -14 318 132 386 215 17 19 30 39 30 44 0 21 30 34 90 41 36 4 73 15 83 23 17 17 24 39 8 29 -13 -8 -21 19 -21 68 0 41 -2 44 -47 67 -27 13 -52 30 -56 37 -6 9 -73 44 -81 42 0 0 -10 -7 -20 -15z"/>
<path d="M7724 1316 c-11 -8 -33 -16 -49 -18 -36 -4 -48 -37 -16 -45 23 -6 28 -29 9 -36 -25 -9 10 -30 47 -29 19 1 35 -3 35 -7 0 -5 2 -16 5 -23 4 -9 -6 -18 -27 -26 -51 -18 -161 -31 -180 -21 -30 16 -77 9 -140 -20 -35 -16 -78 -35 -96 -42 -40 -14 -32 -25 25 -32 32 -4 49 0 66 13 16 12 47 21 93 24 247 19 247 19 241 3 -8 -20 37 -28 113 -20 49 5 58 8 49 19 -6 8 -26 14 -43 14 -30 1 -30 1 -11 16 13 10 31 13 53 9 37 -7 102 13 102 31 0 18 101 52 157 52 18 1 42 7 54 16 12 8 29 12 38 9 9 -3 6 2 -7 12 -23 17 -82 13 -82 -6 0 -5 -15 -9 -34 -9 -18 0 -49 -6 -68 -14 -18 -8 -60 -15 -93 -15 -33 -1 -94 -4 -135 -7 -47 -3 -70 -1 -61 4 11 8 11 10 0 14 -20 7 -5 19 33 27 39 8 46 29 18 58 -11 12 -20 29 -20 36 0 8 -10 17 -22 21 -31 8 -31 8 -54 -8z"/>
<path d="M9555 1315 c-12 -8 -55 -19 -97 -25 -42 -6 -91 -15 -109 -20 -19 -6 -49 -10 -67 -10 -27 0 -33 -4 -30 -17 2 -10 12 -18 23 -19 11 -1 37 -2 59 -3 31 -1 37 -4 32 -17 -4 -12 -2 -15 9 -11 8 4 17 1 21 -4 3 -6 15 -9 25 -6 11 3 19 1 19 -4 0 -5 36 -9 80 -9 l80 0 0 39 c0 29 -5 41 -17 44 -17 4 -17 5 0 6 13 1 17 10 17 36 0 38 -12 43 -45 20z"/>
<path d="M8839 1206 c-2 -3 -32 -6 -67 -8 -34 -1 -62 -6 -62 -10 0 -5 -13 -8 -29 -8 -17 0 -33 -5 -36 -10 -8 -12 30 -53 58 -63 32 -12 17 -26 -30 -29 -36 -2 -49 -7 -51 -20 -2 -11 3 -18 11 -18 8 0 28 -7 45 -15 28 -15 34 -15 62 0 25 13 29 19 20 30 -7 8 -9 19 -5 24 3 6 -3 19 -14 30 -23 23 -19 28 29 31 80 5 151 0 145 -10 -3 -5 -2 -10 3 -10 19 0 7 -32 -15 -43 -39 -17 -21 -30 63 -45 60 -10 90 -11 128 -3 76 17 70 2 -9 -24 -38 -12 14 -28 79 -25 77 4 269 1 274 -5 9 -9 -43 -44 -57 -39 -16 5 -53 -25 -45 -37 3 -5 -2 -16 -10 -25 -10 -10 -16 -11 -16 -3 0 15 -103 6 -108 -10 -2 -6 -10 -11 -18 -11 -8 0 -14 -6 -14 -12 1 -31 17 -38 83 -37 37 1 73 -4 80 -10 9 -7 24 -7 51 0 21 6 44 8 52 5 10 -4 12 -2 8 6 -5 8 -2 9 11 4 21 -8 65 18 65 39 0 8 6 15 13 14 22 -1 49 -15 47 -24 -1 -5 3 -11 9 -13 7 -2 11 21 11 67 0 69 -1 71 -24 71 -37 0 -42 19 -7 26 26 5 31 11 31 35 l0 28 -111 -6 -111 -6 11 21 c6 12 20 26 31 32 24 13 100 13 100 0 0 -5 18 -10 40 -10 37 0 40 2 40 29 l0 29 -92 5 c-117 7 -148 5 -148 -9 0 -6 -13 -14 -29 -17 -16 -3 -35 -12 -42 -19 -18 -18 -158 -38 -181 -27 -9 5 -46 9 -82 9 -52 0 -66 3 -66 15 0 11 11 15 41 15 24 0 38 4 34 10 -3 6 1 7 10 4 9 -4 26 -2 38 4 12 6 61 14 110 17 65 5 87 10 87 21 0 15 -22 18 -110 15 -71 -2 -192 -22 -204 -33 -6 -4 -16 -8 -24 -8 -11 0 -12 3 -3 14 10 12 6 17 -23 27 -20 7 -36 17 -36 21 0 8 -33 11 -41 4z"/>
<path d="M8465 1140 c-16 -5 -72 -13 -123 -18 -72 -7 -96 -13 -107 -28 -28 -36 -19 -51 35 -58 52 -7 65 -20 30 -29 -11 -3 -20 -13 -20 -22 0 -12 -7 -16 -27 -13 -20 2 -28 -2 -28 -12 0 -8 5 -14 10 -14 106 14 122 14 135 0 16 -20 30 -20 30 -1 0 8 5 15 10 15 18 0 11 -18 -20 -46 -22 -21 -26 -31 -18 -41 12 -15 40 -17 54 -4 12 11 70 22 78 14 3 -3 -2 -12 -11 -18 -16 -12 -13 -15 20 -28 20 -9 37 -21 37 -26 0 -6 3 -10 8 -10 4 1 26 1 48 0 39 -1 41 -3 36 -27 l-5 -26 94 5 c134 8 209 25 209 48 0 7 -74 24 -97 22 -7 0 -13 3 -13 8 0 5 6 9 14 9 7 0 27 7 42 15 16 8 43 15 59 16 17 1 44 5 60 10 19 5 2 6 -45 2 -41 -3 -94 -6 -117 -7 -24 0 -43 -5 -43 -9 0 -4 -9 -3 -21 3 -16 9 -25 8 -40 -6 -11 -10 -19 -12 -19 -6 0 7 -16 12 -40 12 -33 0 -40 3 -40 20 0 25 -6 25 -54 -1 -21 -11 -46 -17 -55 -14 -14 6 -14 8 4 18 30 16 45 34 45 51 0 12 10 15 40 14 22 -1 43 2 48 7 4 4 -18 5 -49 3 -62 -5 -91 11 -68 38 6 8 9 18 5 22 -11 10 -150 9 -157 -1 -3 -5 -18 -5 -33 -1 l-28 7 21 20 c23 24 123 57 150 50 11 -3 24 5 35 21 l16 26 -32 -1 c-18 -1 -46 -5 -63 -9z"/>
<path d="M7208 941 c-21 -10 -46 -25 -57 -35 -11 -10 -24 -15 -30 -12 -11 7 -61 -13 -61 -25 0 -4 12 -12 28 -17 25 -10 23 -10 -20 -11 -52 -1 -69 -14 -38 -31 21 -11 86 -4 96 11 3 5 18 9 33 9 16 0 34 7 41 15 7 8 23 15 36 15 12 0 26 5 29 10 4 7 12 7 25 0 13 -7 28 -7 46 0 35 14 29 18 -30 24 -66 7 -77 20 -32 41 20 10 36 19 36 21 0 11 -69 0 -102 -15z"/>
<path d="M8080 939 c0 -5 -7 -9 -15 -9 -19 0 -20 -19 -1 -26 8 -3 17 -12 20 -19 3 -10 0 -12 -12 -8 -15 6 -15 4 -4 -9 12 -15 7 -19 -45 -33 -32 -10 -68 -21 -81 -26 -13 -5 -32 -9 -43 -9 -11 0 -17 -4 -14 -10 3 -5 33 -10 67 -10 53 0 59 -2 48 -15 -10 -12 -10 -15 1 -16 102 -8 144 -7 202 7 45 11 87 14 121 10 29 -3 56 -3 59 1 4 3 22 8 39 10 46 4 58 10 58 27 0 18 -35 24 -77 13 -23 -5 -41 -3 -62 8 -17 8 -40 15 -53 16 -18 0 -15 3 15 16 59 24 27 33 -95 26 -75 -4 -108 -3 -108 5 0 6 5 14 10 17 17 10 11 32 -10 38 -11 3 -20 1 -20 -4z"/>
<path d="M9056 774 c-56 -15 -82 -34 -48 -34 31 0 28 1 68 -16 21 -9 39 -12 43 -6 3 5 23 12 44 15 34 5 37 4 37 -19 0 -13 3 -24 8 -25 46 -6 339 8 352 16 23 14 6 32 -42 44 -69 16 -102 15 -131 -4 -19 -12 -33 -13 -77 -5 -29 5 -66 10 -83 10 -17 0 -38 7 -47 15 -24 22 -68 25 -124 9z"/>
<path d="M7926 732 c-3 -5 -33 -12 -66 -15 -33 -4 -79 -16 -102 -27 -29 -14 -62 -20 -108 -20 -60 0 -69 -3 -94 -29 -30 -31 -23 -46 19 -35 15 4 25 2 25 -5 0 -6 13 -11 30 -11 52 0 130 -21 130 -35 0 -15 54 -11 95 6 l20 9 -20 -2 c-40 -3 -137 60 -107 70 7 2 12 11 12 19 0 12 7 14 29 10 44 -9 148 9 180 32 16 12 37 21 46 21 9 0 14 4 11 8 -7 12 -93 14 -100 4z"/>
<path d="M8850 677 c-149 -8 -196 -18 -154 -33 10 -4 22 -12 25 -17 10 -14 143 -19 234 -9 73 9 109 6 78 -5 -18 -6 -16 -23 2 -23 20 0 30 46 14 66 -23 28 -43 30 -199 21z"/>
<path d="M9558 673 c-18 -3 -28 -11 -28 -21 0 -14 -2 -14 -9 -3 -7 11 -15 12 -38 3 -22 -9 -276 -32 -348 -32 -8 0 -15 -7 -15 -15 0 -8 5 -15 10 -15 19 0 10 -21 -12 -29 -31 -11 -10 -19 40 -13 36 3 41 6 30 19 -8 10 -9 16 -1 21 23 15 333 -1 333 -17 0 -3 18 -6 40 -6 38 0 40 1 40 33 0 26 -4 32 -21 32 -11 0 -18 4 -14 10 3 5 12 7 20 3 10 -3 15 2 15 16 0 12 -3 20 -7 20 -5 -1 -20 -4 -35 -6z"/>
<path d="M6822 568 c-79 -4 -146 -9 -149 -12 -3 -2 9 -12 25 -20 36 -19 198 -21 248 -4 36 13 97 2 73 -13 -7 -5 -24 -9 -36 -9 -13 0 -23 -4 -23 -9 0 -4 18 -8 39 -8 32 0 40 4 43 21 11 61 -3 65 -220 54z"/>
<path d="M7634 479 c-10 -4 -34 -8 -52 -8 -18 -1 -52 -10 -74 -21 -23 -11 -52 -20 -65 -20 -13 0 -29 -10 -39 -25 -12 -19 -20 -23 -29 -15 -18 15 -137 8 -143 -7 -2 -7 5 -16 15 -19 58 -19 76 -30 84 -51 5 -13 17 -23 28 -23 33 0 51 -11 51 -31 0 -10 -7 -19 -15 -19 -8 0 -15 -3 -15 -7 1 -45 109 -69 168 -39 31 16 72 5 72 -18 0 -17 73 -41 96 -32 26 10 14 36 -26 56 -22 11 -40 24 -40 29 0 12 -54 23 -122 25 -67 3 -82 11 -44 26 18 7 33 7 46 0 26 -14 63 -12 86 4 19 14 19 15 -5 40 -18 19 -41 28 -97 37 -41 7 -76 19 -78 26 -5 13 15 18 26 7 4 -3 51 -7 105 -10 54 -2 92 0 85 5 -10 6 -4 10 18 15 49 9 90 7 90 -5 0 -6 -7 -9 -15 -5 -19 7 -65 -13 -65 -30 0 -6 -7 -14 -15 -18 -8 -3 -15 -10 -15 -17 0 -6 7 -9 15 -5 10 3 15 -1 15 -14 0 -11 7 -19 18 -19 9 1 27 -2 39 -6 18 -6 30 1 61 34 27 29 46 41 66 41 39 0 29 20 -22 45 -31 15 -40 24 -36 37 4 13 -3 21 -23 29 -35 13 -123 18 -149 8z"/>
<path d="M9212 460 c-29 -46 1 -120 32 -78 6 8 29 18 51 21 36 6 37 5 12 -4 -16 -7 -26 -17 -23 -24 4 -13 -51 -27 -157 -40 -26 -4 -45 -10 -42 -16 4 -5 -11 -9 -32 -9 -41 0 -72 -14 -59 -27 10 -10 117 -10 176 0 25 4 76 12 114 17 38 5 70 11 72 13 2 1 -3 15 -11 30 -12 23 -12 27 0 27 8 0 17 -4 20 -10 3 -5 30 -10 58 -10 67 0 104 -10 85 -21 -9 -6 -3 -9 17 -9 17 0 40 -3 53 -6 21 -6 22 -3 22 44 l0 50 -119 12 c-109 12 -120 15 -132 36 -11 21 -20 24 -68 24 -45 0 -59 -4 -69 -20z"/>
<path d="M8932 450 c-62 -18 -158 -32 -217 -30 -41 0 -75 -8 -75 -20 0 -13 37 -32 85 -43 79 -17 219 -27 255 -18 19 5 61 15 93 21 59 12 66 17 45 39 -11 10 -10 11 5 6 23 -9 22 6 -3 33 -13 14 -33 22 -53 22 -18 0 -41 2 -52 4 -11 2 -48 -4 -83 -14z"/>
<path d="M7880 273 c-47 -2 -89 -8 -93 -12 -5 -5 4 -23 21 -40 26 -28 36 -31 86 -31 57 0 71 -11 39 -29 -14 -8 -8 -10 27 -10 l45 -1 -23 18 -24 18 35 27 c20 15 40 27 46 27 17 0 24 22 10 31 -8 5 -30 8 -49 7 -19 -1 -73 -4 -120 -5z"/>
<path d="M8821 239 c-24 -5 -48 -6 -53 -3 -5 4 -27 -8 -48 -25 -34 -27 -47 -31 -99 -31 -48 0 -61 3 -61 15 0 11 -11 15 -40 15 -34 0 -40 -3 -40 -21 0 -11 -7 -27 -15 -36 -9 -8 -14 -20 -12 -27 5 -17 113 -23 166 -9 25 6 54 10 64 7 11 -4 20 2 26 18 8 18 10 19 10 5 1 -17 40 -39 65 -36 6 1 27 1 46 0 33 -2 34 -2 15 -16 -46 -33 -47 -36 -29 -56 9 -10 23 -19 31 -19 7 0 13 -4 13 -9 0 -14 357 -14 365 -1 4 7 18 9 31 6 35 -9 29 7 -8 24 -34 15 -105 15 -124 -1 -13 -10 -24 -2 -24 19 0 22 31 41 68 42 17 0 32 4 32 10 0 5 6 7 14 4 8 -3 25 0 38 7 13 7 26 12 31 11 9 -3 9 20 -1 35 -5 8 -40 15 -86 17 -43 3 -81 7 -84 10 -2 3 1 12 7 20 7 8 10 20 6 26 -9 15 -32 12 -39 -6 -5 -14 -9 -13 -35 2 -23 13 -34 15 -59 6 -17 -6 -39 -9 -49 -7 -51 10 -82 11 -122 4z"/>
<path d="M1175 210 c-16 -4 -52 -8 -80 -9 -61 -2 -77 -11 -77 -45 0 -16 -5 -25 -12 -23 -15 6 -48 -12 -41 -23 3 -5 24 -8 47 -8 34 0 46 -5 63 -26 11 -14 27 -26 35 -27 8 0 3 -5 -12 -11 -16 -5 -28 -13 -28 -18 0 -11 60 -19 66 -8 3 4 14 8 25 8 10 0 19 7 19 15 0 9 -9 15 -24 15 -34 0 -40 15 -13 33 35 23 83 31 90 14 9 -24 67 -29 125 -11 44 14 55 15 62 4 4 -7 6 -19 3 -27 -3 -7 0 -13 6 -14 35 -3 59 -2 79 5 18 6 27 3 38 -12 13 -19 22 -20 87 -15 39 3 76 9 81 14 6 5 30 10 55 10 77 2 105 12 119 42 7 15 21 27 32 27 10 0 22 5 25 10 4 6 -11 10 -39 10 -25 0 -47 4 -50 8 -7 12 -77 2 -82 -12 -3 -7 -22 -10 -49 -8 -26 3 -45 0 -45 -6 0 -9 148 -22 160 -14 2 2 -2 7 -10 12 -21 13 -3 12 21 -1 27 -14 6 -41 -26 -33 -12 3 -37 -1 -56 -9 -28 -11 -48 -12 -114 -2 -44 7 -93 18 -110 26 l-30 13 33 4 c18 2 39 -1 45 -6 7 -5 21 -6 32 -2 18 7 18 9 -8 19 -16 6 -40 11 -54 11 -32 0 -103 -20 -121 -34 -9 -7 -16 -6 -21 2 -3 6 -33 12 -66 14 l-60 3 38 17 c48 22 52 52 5 36 -18 -6 -60 -13 -93 -14 -61 -4 -60 -2 15 22 13 5 13 6 0 13 -27 15 -55 19 -85 11z"/>
<path d="M9450 189 c0 -5 8 -9 18 -10 11 -1 9 -4 -8 -9 -25 -8 -24 -8 5 -9 31 -1 63 -16 54 -25 -3 -3 -45 -8 -95 -11 -69 -4 -92 -9 -102 -23 -12 -16 -6 -17 80 -20 51 -2 96 -6 100 -10 4 -4 28 -6 53 -4 l45 4 0 62 0 62 -75 1 c-41 0 -75 -3 -75 -8z"/>
<path d="M8217 50 c-31 -9 -57 -28 -57 -40 0 -5 115 -9 256 -9 l255 -2 -18 24 c-16 22 -19 23 -30 8 -10 -14 -16 -14 -45 -3 -52 20 -211 27 -259 12 -37 -12 -42 -12 -51 3 -10 19 -11 19 -51 7z"/>
</g>
</svg>
